<svg fill="none" xmlns="http://www.w3.org/2000/svg" viewBox="2.47 2.43 27.13 27.12">     <path d=" M28.48 10.62a13.248 13.248 0 0 0-2-3.22A13.53 13.53 0 1 0 7.8 26.72a13.09 13.09 0 0 0 3.2 1.83 13.39 13.39 0 0 0 5.07 1A13.56 13.56 0 0 0 29.6 16a13.39 13.39 0 0 0-1.12-5.38Z  M16.06 5.19c1.562 0 3.104.341 4.52 1a4.39 4.39 0 0 1-1.08.31 5.73 5.73 0 0 0-4.85 4.85A3 3 0 0 1 11.94 14a5.73 5.73 0 0 0-4.85 4.85 2.91 2.91 0 0 1-.79 1.74 10.8 10.8 0 0 1 9.77-15.42l-.01.02Z   M7.79 23c.12-.11.24-.21.36-.33a5.48 5.48 0 0 0 1.62-3.23 2.92 2.92 0 0 1 .87-1.82 2.83 2.83 0 0 1 1.81-.86 5.73 5.73 0 0 0 4.85-4.85 2.92 2.92 0 0 1 .87-1.91A2.87 2.87 0 0 1 20 9.17a5.48 5.48 0 0 0 3-1.43 10.51 10.51 0 0 1 2.36 2.78.862.862 0 0 1-.13.14 2.87 2.87 0 0 1-1.81.88 5.71 5.71 0 0 0-4.85 4.85 3 3 0 0 1-2.69 2.68A5.76 5.76 0 0 0 11 23.92a3.14 3.14 0 0 1-.49 1.37A10.89 10.89 0 0 1 7.79 23Zm8.27 3.86a10.841 10.841 0 0 1-3-.42c.334-.622.55-1.3.64-2a3 3 0 0 1 2.68-2.68 5.73 5.73 0 0 0 4.86-4.85 3 3 0 0 1 2.68-2.68 5.71 5.71 0 0 0 2.56-1 10.82 10.82 0 0 1-10.42 13.58v.05Z" class="ccustom" fill="#38A18A"></path> </svg>