<svg width="769" height="769" viewBox="0 0 769 769" fill="none" xmlns="http://www.w3.org/2000/svg">
    <line y1="0.5" x2="768" y2="0.5" stroke="#EAECF0"/>
    <line y1="48.5" x2="768" y2="48.5" stroke="#EAECF0"/>
    <line y1="96.5" x2="768" y2="96.5" stroke="#EAECF0"/>
    <line y1="144.5" x2="768" y2="144.5" stroke="#EAECF0"/>
    <line y1="192.5" x2="768" y2="192.5" stroke="#EAECF0"/>
    <line y1="240.5" x2="768" y2="240.5" stroke="#EAECF0"/>
    <line y1="288.5" x2="768" y2="288.5" stroke="#EAECF0"/>
    <line y1="336.5" x2="768" y2="336.5" stroke="#EAECF0"/>
    <line y1="384.5" x2="768" y2="384.5" stroke="#EAECF0"/>
    <line y1="432.5" x2="768" y2="432.5" stroke="#EAECF0"/>
    <line y1="480.5" x2="768" y2="480.5" stroke="#EAECF0"/>
    <line y1="528.5" x2="768" y2="528.5" stroke="#EAECF0"/>
    <line y1="576.5" x2="768" y2="576.5" stroke="#EAECF0"/>
    <line y1="624.5" x2="768" y2="624.5" stroke="#EAECF0"/>
    <line y1="672.5" x2="768" y2="672.5" stroke="#EAECF0"/>
    <line y1="720.5" x2="768" y2="720.5" stroke="#EAECF0"/>
    <line y1="768.5" x2="768" y2="768.5" stroke="#EAECF0"/>
    <line x1="768.5" y1="1" x2="768.5" y2="769" stroke="#EAECF0"/>
    <line x1="720.5" y1="1" x2="720.5" y2="769" stroke="#EAECF0"/>
    <line x1="672.5" y1="1" x2="672.5" y2="769" stroke="#EAECF0"/>
    <line x1="624.5" y1="1" x2="624.5" y2="769" stroke="#EAECF0"/>
    <line x1="576.5" y1="1" x2="576.5" y2="769" stroke="#EAECF0"/>
    <line x1="528.5" y1="1" x2="528.5" y2="769" stroke="#EAECF0"/>
    <line x1="480.5" y1="1" x2="480.5" y2="769" stroke="#EAECF0"/>
    <line x1="432.5" y1="1" x2="432.5" y2="769" stroke="#EAECF0"/>
    <line x1="384.5" y1="1" x2="384.5" y2="769" stroke="#EAECF0"/>
    <line x1="336.5" y1="1" x2="336.5" y2="769" stroke="#EAECF0"/>
    <line x1="288.5" y1="1" x2="288.5" y2="769" stroke="#EAECF0"/>
    <line x1="240.5" y1="1" x2="240.5" y2="769" stroke="#EAECF0"/>
    <line x1="192.5" y1="1" x2="192.5" y2="769" stroke="#EAECF0"/>
    <line x1="144.5" y1="1" x2="144.5" y2="769" stroke="#EAECF0"/>
    <line x1="96.5" y1="1" x2="96.5" y2="769" stroke="#EAECF0"/>
    <line x1="48.5" y1="1" x2="48.5" y2="769" stroke="#EAECF0"/>
    <line x1="0.5" y1="1" x2="0.499966" y2="769" stroke="#EAECF0"/>
</svg>
